<?xml version="1.0" encoding="UTF-8"?>
<!DOCTYPE svg  PUBLIC '-//W3C//DTD SVG 1.1//EN'  'http://www.w3.org/Graphics/SVG/1.1/DTD/svg11.dtd'>
<svg enable-background="new 0 0 50.05 18.75" version="1.1" viewBox="0 0 50.05 18.75" xml:space="preserve" xmlns="http://www.w3.org/2000/svg">
<linearGradient id="ak" x1="10.956" x2="22.251" y1="21.158" y2="21.158" gradientTransform="matrix(.8255 -.5644 .5644 .8255 -3.3975e-5 -8.5711e-5)" gradientUnits="userSpaceOnUse">
	<stop stop-color="#F59300" offset="0"/>
	<stop stop-color="#C25100" offset="1"/>
</linearGradient>
<path d="m40.35 11.3c-0.767 0.667-2.116 1.334-4.05 2-3.833 1.3-8.583 1.95-14.25 1.95-6.533 0-11.816-0.717-15.85-2.15-2.034-0.733-3.4-1.466-4.1-2.199 1.167-0.167 2.65-0.834 4.45-2 3.267-2.167 5.184-3.4 5.75-3.7 3.1-1.733 5.784-3.467 8.05-5.2 1.433 1.166 4.983 3.199 10.65 6.099 3.7 1.867 6.816 3.6 9.35 5.2z" clip-rule="evenodd" fill="url(#ak)" fill-rule="evenodd"/>
<linearGradient id="at" x1="-5.1719" x2="-4.5062" y1="10.588" y2="10.588" gradientTransform="matrix(.8262 -.5633 .5633 .8262 1.3411e-5 -.00014031)" gradientUnits="userSpaceOnUse">
	<stop stop-color="#F59300" offset="0"/>
	<stop stop-color="#C25100" offset="1"/>
</linearGradient>
<path d="m2.3 10.9c0.7 0.767 0.65 1.216-0.15 1.35-0.867 0.1-1.367-0.05-1.5-0.45-0.1-0.3 0.083-0.583 0.55-0.85 0.5-0.3 0.867-0.316 1.1-0.05z" clip-rule="evenodd" fill="url(#at)" fill-rule="evenodd"/>
<linearGradient id="au" x1="-5.2212" x2="-4.715" y1="12.92" y2="12.92" gradientTransform="matrix(.8396 -.5433 .5433 .8396 .00010931 3.3081e-5)" gradientUnits="userSpaceOnUse">
	<stop stop-color="#F59300" offset="0"/>
	<stop stop-color="#C25100" offset="1"/>
</linearGradient>
<path d="m2.85 13.2c0.667 0.267 0.833 0.5 0.5 0.7-0.3 0.166-0.684 0.183-1.15 0.05-0.4-0.066-0.467-0.233-0.2-0.5s0.55-0.35 0.85-0.25z" clip-rule="evenodd" fill="url(#au)" fill-rule="evenodd"/>
<linearGradient id="av" x1="-3.665" x2="-3.415" y1="12.705" y2="12.705" gradientTransform="matrix(.8 -.6 .6 .8 .00048566 0)" gradientUnits="userSpaceOnUse">
	<stop stop-color="#F59300" offset="0"/>
	<stop stop-color="#C25100" offset="1"/>
</linearGradient>
<path d="m4.75 12.2c0.367 0.033 0.467 0.133 0.3 0.3-0.167 0.134-0.35 0.15-0.55 0.05-0.2-0.067-0.283-0.15-0.25-0.25 0.067-0.1 0.233-0.133 0.5-0.1z" clip-rule="evenodd" fill="url(#av)" fill-rule="evenodd"/>
<linearGradient id="aw" x1="-2.5586" x2="-2.3783" y1="14.322" y2="14.322" gradientTransform="matrix(.8321 -.5547 .5547 .8321 .00037217 .00012875)" gradientUnits="userSpaceOnUse">
	<stop stop-color="#F59300" offset="0"/>
	<stop stop-color="#C25100" offset="1"/>
</linearGradient>
<path d="m5.9 13.2c0.434 0.1 0.333 0.184-0.3 0.25-0.1-0.033-0.117-0.084-0.05-0.15 0.1-0.1 0.217-0.133 0.35-0.1z" clip-rule="evenodd" fill="url(#aw)" fill-rule="evenodd"/>
<linearGradient id="ax" x1=".5337" x2="1.65" y1="18.506" y2="18.506" gradientTransform="matrix(.8286 -.5599 .5599 .8286 -.00030798 9.805e-5)" gradientUnits="userSpaceOnUse">
	<stop stop-color="#F59300" offset="0"/>
	<stop stop-color="#C25100" offset="1"/>
</linearGradient>
<path d="m8.9 14.85c-0.4-0.199-0.4-0.383 0-0.55 0.367-0.166 0.7-0.2 1-0.1 0.2 0.1 0.833 0.133 1.9 0.1 0.567 0.066 0.833 0.316 0.8 0.75-0.033 0.2-0.067 0.45-0.1 0.75 0.133 0.101 0 0.184-0.4 0.25-0.367 0.066-0.7 0.066-1 0-0.233-0.033-0.4-0.149-0.5-0.35s-0.167-0.316-0.2-0.351l-1.5-0.499z" clip-rule="evenodd" fill="url(#ax)" fill-rule="evenodd"/>
<linearGradient id="ay" x1="-1.2881" x2="-.8027" y1="17.82" y2="17.82" gradientTransform="matrix(.824 -.5665 .5665 .824 -.00022316 -5.0068e-5)" gradientUnits="userSpaceOnUse">
	<stop stop-color="#F59300" offset="0"/>
	<stop stop-color="#C25100" offset="1"/>
</linearGradient>
<path d="m9.4 15.2c0.4 0.1 0.55 0.2 0.45 0.3-0.067 0.1-0.25 0.167-0.55 0.2-0.5 0.033-0.85-0.033-1.05-0.2-0.167-0.134-0.067-0.233 0.3-0.3 0.333-0.066 0.617-0.066 0.85 0z" clip-rule="evenodd" fill="url(#ay)" fill-rule="evenodd"/>
<linearGradient id="az" x1="-3.4053" x2="-2.8851" y1="10.235" y2="10.235" gradientTransform="matrix(.817 -.5767 .5767 .817 -.00011128 -.00015795)" gradientUnits="userSpaceOnUse">
	<stop stop-color="#F59300" offset="0"/>
	<stop stop-color="#C25100" offset="1"/>
</linearGradient>
<path d="m3.95 10.35c-0.4 0.2-0.733 0.284-1 0.25-0.467-0.066-0.667-0.133-0.6-0.199 0.067-0.134 0.15-0.234 0.25-0.301 0.2-0.2 0.45-0.266 0.75-0.2 0.5 0.1 0.7 0.25 0.6 0.45z" clip-rule="evenodd" fill="url(#az)" fill-rule="evenodd"/>
<linearGradient id="bb" x1="-6.6851" x2="-6.4351" y1="9.8325" y2="9.8325" gradientTransform="matrix(.8 -.6 .6 .8 .00048566 0)" gradientUnits="userSpaceOnUse">
	<stop stop-color="#F59300" offset="0"/>
	<stop stop-color="#C25100" offset="1"/>
</linearGradient>
<path d="m0.95 12.05c-0.067 0.1-0.217 0.134-0.45 0.1-0.367-0.067-0.467-0.217-0.3-0.45 0.066-0.167 0.25-0.2 0.55-0.101 0.133 1e-3 0.2 0.151 0.2 0.451z" clip-rule="evenodd" fill="url(#bb)" fill-rule="evenodd"/>
<linearGradient id="ba" x1="-4.0366" x2="-3.4263" y1="16.506" y2="16.506" gradientTransform="matrix(.8192 -.5735 .5735 .8192 -.00057751 .00019753)" gradientUnits="userSpaceOnUse">
	<stop stop-color="#F59300" offset="0"/>
	<stop stop-color="#C25100" offset="1"/>
</linearGradient>
<path d="m6.55 15.45c0.6 0.066 0.767 0.25 0.5 0.55s-0.716 0.35-1.35 0.15c-0.567-0.2-0.684-0.384-0.35-0.551 0.3-0.165 0.7-0.215 1.2-0.149z" clip-rule="evenodd" fill="url(#ba)" fill-rule="evenodd"/>
<linearGradient id="ab" x1="6.3042" x2="8.0862" y1="23.412" y2="23.412" gradientTransform="matrix(.8277 -.5612 .5612 .8277 -9.5248e-5 -7.987e-5)" gradientUnits="userSpaceOnUse">
	<stop stop-color="#F59300" offset="0"/>
	<stop stop-color="#C25100" offset="1"/>
</linearGradient>
<path d="m21.55 16.15c0 0.066-0.483 0.149-1.45 0.25-1.033 0.133-1.883 0.199-2.55 0.199s-1.2-0.1-1.6-0.3c-0.4-0.166-0.55-0.333-0.45-0.5 0.133-0.467 0.55-0.916 1.25-1.35 0.433-0.267 0.983-0.334 1.65-0.2 0.567 0.066 1.1 0.25 1.6 0.55 0.367 0.233 0.733 0.517 1.1 0.851 0.3 0.267 0.45 0.433 0.45 0.5z" clip-rule="evenodd" fill="url(#ab)" fill-rule="evenodd"/>
<linearGradient id="ac" x1="8.6289" x2="9.981" y1="25.816" y2="25.816" gradientTransform="matrix(.8321 -.5547 .5547 .8321 -.00011343 .00012845)" gradientUnits="userSpaceOnUse">
	<stop stop-color="#F59300" offset="0"/>
	<stop stop-color="#C25100" offset="1"/>
</linearGradient>
<path d="m22.6 15.75l1.15 0.85c-0.133 0.4-0.567 0.667-1.3 0.801-1.034 0.233-1.967 0.166-2.8-0.2-0.2-0.101-0.167-0.316 0.1-0.65 0.133-0.166 0.35-0.399 0.65-0.7 0.133-0.199 0.434-0.316 0.9-0.35 0.467-0.067 0.9 0.016 1.3 0.249z" clip-rule="evenodd" fill="url(#ac)" fill-rule="evenodd"/>
<linearGradient id="ad" x1="3.5996" x2="4.5357" y1="23.779" y2="23.779" gradientTransform="matrix(.8279 -.5608 .5608 .8279 -.00029653 -.00017166)" gradientUnits="userSpaceOnUse">
	<stop stop-color="#F59300" offset="0"/>
	<stop stop-color="#C25100" offset="1"/>
</linearGradient>
<path d="m16.85 16.85c0.3 0.067 0.583 0.233 0.85 0.5 0.233 0.267 0.267 0.467 0.1 0.601-0.133 0.133-0.55 0.184-1.25 0.149-0.567-0.034-1.05-0.1-1.45-0.2-0.267-0.067-0.383-0.167-0.35-0.301 0.033-0.066 0.183-0.216 0.45-0.449 0.4-0.367 0.95-0.466 1.65-0.3z" clip-rule="evenodd" fill="url(#ad)" fill-rule="evenodd"/>
<linearGradient id="ae" x1="1.8994" x2="2.475" y1="23.381" y2="23.381" gradientTransform="matrix(.8253 -.5647 .5647 .8253 -.00022441 -.00023454)" gradientUnits="userSpaceOnUse">
	<stop stop-color="#F59300" offset="0"/>
	<stop stop-color="#C25100" offset="1"/>
</linearGradient>
<path d="m15.65 18.1c0.133 0.134 0.117 0.233-0.05 0.301-0.367 0.166-0.883 0.183-1.55 0.05-0.4-0.134-0.233-0.4 0.5-0.8 0.167-0.134 0.367-0.15 0.6-0.051 0.233 0.1 0.4 0.266 0.5 0.5z" clip-rule="evenodd" fill="url(#ae)" fill-rule="evenodd"/>
<linearGradient id="af" x1="17.388" x2="19.024" y1="30.866" y2="30.866" gradientTransform="matrix(.8249 -.5652 .5652 .8249 .00025576 .00011206)" gradientUnits="userSpaceOnUse">
	<stop stop-color="#F59300" offset="0"/>
	<stop stop-color="#C25100" offset="1"/>
</linearGradient>
<path d="m29.5 15.5c0.1-0.167 0.233-0.434 0.4-0.8 0.133-0.334 0.35-0.566 0.649-0.7 0.367-0.167 0.783-0.217 1.25-0.15s0.816 0.217 1.05 0.45c0.267 0.3 0.617 0.533 1.051 0.7 0.199 0.066 0.416 0.267 0.649 0.6 0.2 0.301 0.25 0.483 0.15 0.551-0.134 0.1-0.467 0.199-1 0.3-0.566 0.133-1.05 0.217-1.45 0.25-0.033 0-0.45 0.033-1.25 0.1-0.467 0.033-0.816 0-1.05-0.1-0.233-0.101-0.384-0.283-0.45-0.55-0.065-0.234-0.065-0.451 1e-3 -0.651z" clip-rule="evenodd" fill="url(#af)" fill-rule="evenodd"/>
<linearGradient id="ag" x1="15.157" x2="16.239" y1="30.706" y2="30.706" gradientTransform="matrix(.8321 -.5547 .5547 .8321 -.0006023 .00012845)" gradientUnits="userSpaceOnUse">
	<stop stop-color="#F59300" offset="0"/>
	<stop stop-color="#C25100" offset="1"/>
</linearGradient>
<path d="m30.2 16.05c0.366 0.066 0.717 0.3 1.05 0.7 0.333 0.366 0.384 0.616 0.15 0.75-0.733 0.3-1.351 0.45-1.851 0.45-0.833 0-1.399-0.283-1.7-0.851-0.066-0.133 0.017-0.25 0.25-0.35 0.334-0.2 0.551-0.366 0.65-0.5 0.167-0.2 0.384-0.3 0.65-0.3 0.068 1e-3 0.334 0.034 0.801 0.101z" clip-rule="evenodd" fill="url(#ag)" fill-rule="evenodd"/>
<linearGradient id="ah" x1="12.377" x2="12.918" y1="30.27" y2="30.27" gradientTransform="matrix(.8321 -.5547 .5547 .8321 -.0006023 .00012845)" gradientUnits="userSpaceOnUse">
	<stop stop-color="#F59300" offset="0"/>
	<stop stop-color="#C25100" offset="1"/>
</linearGradient>
<path d="m27.5 17.9c0.5 0.233 0.6 0.449 0.3 0.649-0.3 0.167-0.649 0.233-1.05 0.2-0.267-0.033-0.434-0.116-0.5-0.25-0.033-0.134-0.017-0.233 0.05-0.3 0.033-0.101 0.184-0.2 0.45-0.3 0.333-0.099 0.583-0.099 0.75 1e-3z" clip-rule="evenodd" fill="url(#ah)" fill-rule="evenodd"/>
<linearGradient id="ai" x1="13.86" x2="14.561" y1="28.327" y2="28.327" gradientTransform="matrix(.8209 -.5711 .5711 .8209 .00012559 .0001775)" gradientUnits="userSpaceOnUse">
	<stop stop-color="#F59300" offset="0"/>
	<stop stop-color="#C25100" offset="1"/>
</linearGradient>
<path d="m28.55 15c0.267 0.5-0.233 0.75-1.5 0.75-0.533 0-0.583-0.25-0.149-0.75 0.233-0.2 0.517-0.316 0.85-0.35 0.399-0.034 0.666 0.083 0.799 0.35z" clip-rule="evenodd" fill="url(#ai)" fill-rule="evenodd"/>
<linearGradient id="aj" x1="23.177" x2="24.384" y1="31.832" y2="31.832" gradientTransform="matrix(.8288 -.5595 .5595 .8288 -.0005154 9.2685e-5)" gradientUnits="userSpaceOnUse">
	<stop stop-color="#F59300" offset="0"/>
	<stop stop-color="#C25100" offset="1"/>
</linearGradient>
<path d="m38.95 13.15c-0.634 0.966-1.55 1.366-2.75 1.199-0.766-0.132-0.967-0.449-0.6-0.949 0.067-0.101 0.517-0.517 1.351-1.25 0.366-0.301 0.666-0.334 0.899-0.101 0.167 0.135 0.534 0.501 1.1 1.101z" clip-rule="evenodd" fill="url(#aj)" fill-rule="evenodd"/>
<linearGradient id="al" x1="24.498" x2="25.378" y1="33.46" y2="33.46" gradientTransform="matrix(.8232 -.5677 .5677 .8232 -.00032514 -.00022787)" gradientUnits="userSpaceOnUse">
	<stop stop-color="#F59300" offset="0"/>
	<stop stop-color="#C25100" offset="1"/>
</linearGradient>
<path d="m40.4 13.3c-0.167 0.767-0.667 1.15-1.5 1.15-0.534 0.033-0.817-0.084-0.851-0.351 0-0.133 0.101-0.416 0.3-0.85 0.101-0.233 0.334-0.333 0.7-0.3 0.135 0.034 0.585 0.151 1.351 0.351z" clip-rule="evenodd" fill="url(#al)" fill-rule="evenodd"/>
<linearGradient id="am" x1="27.366" x2="28.427" y1="36.572" y2="36.572" gradientTransform="matrix(.8247 -.5655 .5655 .8247 .00042218 -.00019342)" gradientUnits="userSpaceOnUse">
	<stop stop-color="#F59300" offset="0"/>
	<stop stop-color="#C25100" offset="1"/>
</linearGradient>
<path d="m44.3 13.75c0.101 0.033 0.25 0.167 0.45 0.4 0.2 0.267 0.267 0.483 0.2 0.649-0.101 0.267-1.017 0.334-2.75 0.2-0.467-0.066-0.634-0.167-0.5-0.3l0.5-0.45c0.066-0.233 0.3-0.417 0.7-0.55 0.5-0.199 0.966-0.182 1.4 0.051z" clip-rule="evenodd" fill="url(#am)" fill-rule="evenodd"/>
<linearGradient id="an" x1="27.227" x2="27.712" y1="32.402" y2="32.402" gradientTransform="matrix(.824 -.5665 .5665 .824 -.00022316 -5.0068e-5)" gradientUnits="userSpaceOnUse">
	<stop stop-color="#F59300" offset="0"/>
	<stop stop-color="#C25100" offset="1"/>
</linearGradient>
<path d="m41.15 11.7c-0.5-0.167-0.834-0.3-1-0.4l-0.601-0.6 0.15-0.2c0.2-0.1 0.45-0.1 0.75 0 0.5 0.2 0.883 0.5 1.149 0.9 0.5 0.366 0.617 0.55 0.351 0.55-0.065 0-0.333-0.084-0.799-0.25z" clip-rule="evenodd" fill="url(#an)" fill-rule="evenodd"/>
<linearGradient id="ao" x1="26.981" x2="28.077" y1="33.703" y2="33.703" gradientTransform="matrix(.8214 -.5704 .5704 .8214 .0005638 -.00019199)" gradientUnits="userSpaceOnUse">
	<stop stop-color="#F59300" offset="0"/>
	<stop stop-color="#C25100" offset="1"/>
</linearGradient>
<path d="m41.65 12.8c-0.267 0-0.65-0.066-1.15-0.2-0.5-0.1-0.783-0.183-0.85-0.25-0.034-0.033 0.033-0.116 0.199-0.25 0.067-0.033 0.15-0.083 0.25-0.149 0.2-0.3 0.467-0.517 0.801-0.65 0.333-0.133 0.649-0.133 0.949 0 0.4 0.2 0.884 0.55 1.45 1.05-0.733 0.299-1.282 0.449-1.649 0.449z" clip-rule="evenodd" fill="url(#ao)" fill-rule="evenodd"/>
<linearGradient id="ap" x1="28.674" x2="29.43" y1="34.983" y2="34.983" gradientTransform="matrix(.8269 -.5623 .5623 .8269 .00012368 -8.7917e-5)" gradientUnits="userSpaceOnUse">
	<stop stop-color="#F59300" offset="0"/>
	<stop stop-color="#C25100" offset="1"/>
</linearGradient>
<path d="m44 12.1c0.6 0.434 0.8 0.733 0.6 0.9-0.166 0.1-0.833 0.116-2 0.05-0.366-0.033-0.5-0.133-0.399-0.3l0.35-0.35c0.101-0.134 0.267-0.25 0.5-0.351 0.366-0.132 0.682-0.115 0.949 0.051z" clip-rule="evenodd" fill="url(#ap)" fill-rule="evenodd"/>
<linearGradient id="aq" x1="29.246" x2="29.607" y1="31.923" y2="31.923" gradientTransform="matrix(.8321 -.5547 .5547 .8321 .00037217 .00012875)" gradientUnits="userSpaceOnUse">
	<stop stop-color="#F59300" offset="0"/>
	<stop stop-color="#C25100" offset="1"/>
</linearGradient>
<path d="m42.15 9.9c0.166 0.067 0.316 0.167 0.449 0.3 0.134 0.166 0.134 0.283 0 0.35-0.199 0.101-0.583 0.033-1.149-0.2-0.167-0.033-0.117-0.133 0.149-0.3 0.234-0.167 0.418-0.217 0.551-0.15z" clip-rule="evenodd" fill="url(#aq)" fill-rule="evenodd"/>
<linearGradient id="ar" x1="21.175" x2="22.846" y1="34.303" y2="34.303" gradientTransform="matrix(.8227 -.5684 .5684 .8227 -.0001353 9.6381e-5)" gradientUnits="userSpaceOnUse">
	<stop stop-color="#F59300" offset="0"/>
	<stop stop-color="#C25100" offset="1"/>
</linearGradient>
<path d="m38.85 14.9c0.867 0.933 1.134 1.483 0.801 1.649-0.233 0.134-0.733 0.283-1.5 0.45-0.834 0.167-1.5 0.25-2 0.25-0.4-0.033-0.817-0.167-1.25-0.4l-0.551-0.349 0.7-1.1c0.101-0.2 0.384-0.45 0.851-0.75 0.466-0.367 0.85-0.567 1.149-0.601 0.267-0.033 0.584 0.05 0.95 0.25 0.2 0.135 0.483 0.335 0.85 0.601z" clip-rule="evenodd" fill="url(#ar)" fill-rule="evenodd"/>
<linearGradient id="as" x1="24.856" x2="25.432" y1="36.816" y2="36.816" gradientTransform="matrix(.8253 -.5647 .5647 .8253 -.00022441 -.00023454)" gradientUnits="userSpaceOnUse">
	<stop stop-color="#F59300" offset="0"/>
	<stop stop-color="#C25100" offset="1"/>
</linearGradient>
<path d="m41.55 15.9c0.566 0.133 0.8 0.3 0.7 0.5-0.1 0.166-0.333 0.267-0.7 0.3-0.5 0.1-0.866 0.033-1.1-0.2-0.134-0.1-0.066-0.25 0.2-0.45 0.3-0.2 0.6-0.25 0.9-0.15z" clip-rule="evenodd" fill="url(#as)" fill-rule="evenodd"/>
<path d="m32.8 9.35c0.3 0.367 0.45 0.6 0.45 0.7 0 0.066-0.05 0.184-0.15 0.351-0.033 0.233-0.283 0.366-0.75 0.399-0.466 0-0.75-0.217-0.85-0.649-0.1-0.601-0.05-1.034 0.15-1.3 0.234-0.301 0.617-0.134 1.15 0.499z" clip-rule="evenodd" fill="#A65000" fill-rule="evenodd"/>
<path d="m35.85 9.65c0.767 0.367 0.983 0.767 0.65 1.2-0.167 0.233-0.45 0.233-0.85 0s-0.617-0.5-0.65-0.8c-0.066-0.667 0.217-0.8 0.85-0.4z" clip-rule="evenodd" fill="#A65000" fill-rule="evenodd"/>
<path d="m37.6 10.45c0.267 0.233 0.4 0.366 0.4 0.399 0.066 0.067 0.05 0.15-0.05 0.25-0.2 0.2-0.467 0.15-0.8-0.149-0.2-0.134-0.2-0.283 0-0.45 0.166-0.167 0.317-0.184 0.45-0.05z" clip-rule="evenodd" fill="#A65000" fill-rule="evenodd"/>
<path d="m29.65 6.25c0.233 0.2 0.366 0.417 0.399 0.65 0.033 0.3-0.1 0.5-0.399 0.6-0.266 0.133-0.483 0.067-0.65-0.2-0.134-0.367-0.25-0.65-0.35-0.85-0.133-0.267-0.084-0.417 0.15-0.45 0.233-0.067 0.516 0.017 0.85 0.25z" clip-rule="evenodd" fill="#A65000" fill-rule="evenodd"/>
<path d="m31.85 6.95c0.534 0.466 0.684 0.833 0.45 1.1-0.2 0.3-0.55 0.1-1.05-0.6-0.233-0.233-0.25-0.433-0.05-0.6 0.2-0.133 0.416-0.1 0.65 0.1z" clip-rule="evenodd" fill="#A65000" fill-rule="evenodd"/>
<path d="m33.8 10.5c0.3 0.233 0.483 0.5 0.55 0.8 0.067 0.334-0.066 0.517-0.399 0.55-0.334 0.034-0.55-0.083-0.65-0.35-0.133-0.267-0.133-0.5 0-0.7 0.166-0.366 0.333-0.467 0.499-0.3z" clip-rule="evenodd" fill="#A65000" fill-rule="evenodd"/>
<path d="m25.15 3.5c0.267 0.2 0.399 0.417 0.399 0.65 0.033 0.267-0.116 0.45-0.45 0.55-0.3 0.1-0.55-0.034-0.75-0.4-0.167-0.3-0.25-0.633-0.25-1 1e-3 -0.433 0.351-0.367 1.051 0.2z" clip-rule="evenodd" fill="#A65000" fill-rule="evenodd"/>
<path d="m23.45 2.9c0.133 0.167 0.2 0.333 0.2 0.5-0.033 0.133-0.1 0.233-0.2 0.3-0.133 0.066-0.267 0-0.4-0.2-0.167-0.167-0.25-0.333-0.25-0.5s0.083-0.25 0.25-0.25c0.133-0.033 0.267 0.017 0.4 0.15z" clip-rule="evenodd" fill="#A65000" fill-rule="evenodd"/>
<path d="m28.8 8.6c0.5 0.967 0.316 1.55-0.55 1.75-0.267 0.067-0.417-0.083-0.45-0.45 0-0.1 0.017-0.467 0.05-1.1 0-0.3 0.134-0.466 0.4-0.5 0.233-0.067 0.417 0.033 0.55 0.3z" clip-rule="evenodd" fill="#A65000" fill-rule="evenodd"/>
<path d="m30.15 9.95c0.267 0.3 0.333 0.633 0.199 1-0.033 0.133-0.166 0.166-0.399 0.1s-0.417-0.25-0.55-0.55c-0.101-0.3-0.017-0.5 0.25-0.6 0.234-0.067 0.4-0.05 0.5 0.05z" clip-rule="evenodd" fill="#A65000" fill-rule="evenodd"/>
<path d="m28.6 12.2c0.233 0.267 0.4 0.583 0.5 0.95 0.067 0.433-0.033 0.699-0.3 0.8-0.3 0.1-0.517 0.083-0.649-0.05-0.134-0.101-0.301-0.351-0.5-0.75-0.2-0.4-0.15-0.717 0.149-0.95 0.3-0.266 0.566-0.266 0.8 0z" clip-rule="evenodd" fill="#A65000" fill-rule="evenodd"/>
<path d="m25.3 12.1c0.134-0.033 0.3 0.101 0.5 0.4 0.233 0.267 0.334 0.483 0.3 0.65-0.066 0.3-0.399 0.399-1 0.3-0.266-0.033-0.35-0.25-0.25-0.65 0.067-0.4 0.216-0.633 0.45-0.7z" clip-rule="evenodd" fill="#A65000" fill-rule="evenodd"/>
<path d="m33.4 12.4c0.2 0.2 0.317 0.4 0.35 0.6 0.033 0.267-0.05 0.45-0.25 0.55-0.333 0.167-0.65-0.05-0.95-0.649-0.1-0.233-0.05-0.434 0.15-0.601 0.234-0.133 0.467-0.1 0.7 0.1z" clip-rule="evenodd" fill="#A65000" fill-rule="evenodd"/>
<path d="m34.3 8.3c0.066 0.6-0.083 0.967-0.45 1.1-0.233 0.067-0.383-0.017-0.449-0.25-0.034-0.3-0.101-0.533-0.2-0.7-0.201-0.4 0.165-0.45 1.099-0.15z" clip-rule="evenodd" fill="#A65000" fill-rule="evenodd"/>
<path d="m17.15 3.05c0.6-0.233 0.767 0.05 0.5 0.85-0.066 0.267-0.233 0.467-0.5 0.6-0.333 0.1-0.7 0.033-1.1-0.2-0.533-0.267-0.167-0.683 1.1-1.25z" clip-rule="evenodd" fill="#FFA621" fill-rule="evenodd"/>
<path d="m15.6 4.95c0.267 0 0.417 0.117 0.45 0.35 0.033 0.2-0.05 0.367-0.25 0.5-0.3 0.233-0.55 0.15-0.75-0.25s-0.017-0.6 0.55-0.6z" clip-rule="evenodd" fill="#FFA621" fill-rule="evenodd"/>
<path d="m21.45 3.05c0.167 0.434 0 0.767-0.5 1-0.333 0.167-0.434-0.066-0.3-0.7 0.033-0.133 0.15-0.267 0.35-0.4 0.233-0.1 0.383-0.067 0.45 0.1z" clip-rule="evenodd" fill="#FFA621" fill-rule="evenodd"/>
<path d="m19.35 4.65l0.55-0.15c0.033 0 0.05 0.083 0.05 0.25 0 0.367-0.167 0.517-0.5 0.45-0.167-0.034-0.25-0.117-0.25-0.25-0.033-0.133 0.017-0.233 0.15-0.3z" clip-rule="evenodd" fill="#FFA621" fill-rule="evenodd"/>
<path d="m11.6 6.4c0.4-0.1 0.65-0.05 0.75 0.15 0.066 0.167 0.017 0.4-0.15 0.7-0.233 0.4-0.75 0.467-1.55 0.2-0.3-0.1-0.267-0.284 0.1-0.55 0.3-0.233 0.583-0.4 0.85-0.5z" clip-rule="evenodd" fill="#FFA621" fill-rule="evenodd"/>
<path d="m13.6 6.15c0.467-0.2 0.667-0.133 0.6 0.2-0.067 0.367-0.233 0.633-0.5 0.8-0.4 0.233-0.717 0.2-0.95-0.1-0.2-0.267 0.083-0.567 0.85-0.9z" clip-rule="evenodd" fill="#FFA621" fill-rule="evenodd"/>
<path d="m8.1 9.1c0.267-0.033 0.417 0.1 0.45 0.4 0.067 0.267-0.066 0.533-0.4 0.8-0.3 0.233-0.566 0.334-0.8 0.3-0.133 0-0.367-0.116-0.7-0.35-0.3-0.167-0.25-0.383 0.15-0.65s0.833-0.433 1.3-0.5z" clip-rule="evenodd" fill="#FFA621" fill-rule="evenodd"/>
<path d="m9.55 8.75c0.267-0.067 0.434 0 0.5 0.2 0.067 0.167-0.033 0.367-0.3 0.6-0.233 0.167-0.417 0.25-0.55 0.25-0.1-0.067-0.2-0.1-0.3-0.1-0.167-0.034-0.167-0.184 0-0.45 0.167-0.267 0.383-0.433 0.65-0.5z" clip-rule="evenodd" fill="#FFA621" fill-rule="evenodd"/>
<path d="m15.35 8.8c0.433-0.033 0.667 0.1 0.7 0.4 0.034 0.233-0.117 0.55-0.45 0.95-0.233 0.333-0.417 0.466-0.55 0.399-0.167-0.2-0.333-0.333-0.5-0.399-0.3-0.101-0.333-0.351-0.1-0.75 0.2-0.367 0.5-0.567 0.9-0.6z" clip-rule="evenodd" fill="#FFA621" fill-rule="evenodd"/>
<path d="m18.55 9.2c0.2-0.034 0.367 0.05 0.5 0.25 0.167 0.167 0.217 0.3 0.15 0.4-0.1 0.233-0.434 0.284-1 0.15-0.267-0.033-0.367-0.167-0.3-0.4 0.1-0.2 0.317-0.333 0.65-0.4z" clip-rule="evenodd" fill="#FFA621" fill-rule="evenodd"/>
<path d="m18.35 10.5c0.5 0.1 0.583 0.283 0.25 0.55-0.167 0.134-0.417 0.101-0.75-0.1-0.133-0.134-0.133-0.25 0-0.351 0.133-0.099 0.3-0.132 0.5-0.099z" clip-rule="evenodd" fill="#FFA621" fill-rule="evenodd"/>
<path d="m13.75 12.05c0.667-0.233 1.017-0.083 1.05 0.45 0 0.533-0.167 0.9-0.5 1.1s-0.683 0.034-1.05-0.5c-0.1-0.199-0.1-0.399 0-0.6 0.1-0.233 0.267-0.384 0.5-0.45z" clip-rule="evenodd" fill="#FFA621" fill-rule="evenodd"/>
<path d="m9.55 11c0.367-0.2 0.633-0.25 0.8-0.15 0.167 0.067 0.233 0.167 0.2 0.301-0.066 0.366-0.35 0.6-0.85 0.699-0.3 0.067-0.45-0.033-0.45-0.3s0.1-0.45 0.3-0.55z" clip-rule="evenodd" fill="#FFA621" fill-rule="evenodd"/>
<path d="m21 12.8c0.8-0.033 0.833 0.25 0.1 0.851-0.133 0.1-0.25 0.133-0.35 0.1-0.067-0.1-0.133-0.167-0.2-0.2-0.1-0.066-0.117-0.2-0.05-0.399 0.1-0.235 0.267-0.352 0.5-0.352z" clip-rule="evenodd" fill="#FFA621" fill-rule="evenodd"/>
<path d="m17.35 14.45c0.333 0.033 0.517 0.233 0.55 0.6 0 0.367-0.183 0.634-0.55 0.8-0.3 0.167-0.483 0.2-0.55 0.101-0.066-0.2-0.167-0.367-0.3-0.5-0.133-0.2-0.083-0.434 0.15-0.7 0.267-0.268 0.5-0.367 0.7-0.301z" clip-rule="evenodd" fill="#FFA621" fill-rule="evenodd"/>
<path d="m20.8 15.85c0.133 0.067 0.233 0.184 0.3 0.351 0.1 0.2 0.1 0.366 0 0.5-0.1 0.166-0.2 0.217-0.3 0.149-0.133-0.133-0.283-0.267-0.45-0.399-0.233-0.2-0.267-0.367-0.1-0.5 0.167-0.168 0.35-0.201 0.55-0.101z" clip-rule="evenodd" fill="#FFA621" fill-rule="evenodd"/>
<path d="m30.75 14.25c0.5-0.066 0.733 0.1 0.7 0.5 0 0.366-0.117 0.684-0.351 0.95-0.166 0.2-0.366 0.217-0.6 0.05-0.2-0.134-0.366-0.3-0.5-0.5-0.066-0.167-0.05-0.35 0.05-0.55 0.135-0.266 0.368-0.417 0.701-0.45z" clip-rule="evenodd" fill="#FFA621" fill-rule="evenodd"/>
<path d="m1.45 11c0.233-0.066 0.3 0.066 0.2 0.4-0.1 0.3-0.283 0.433-0.55 0.399s-0.333-0.165-0.2-0.399c0.133-0.167 0.317-0.3 0.55-0.4z" clip-rule="evenodd" fill="#FFA621" fill-rule="evenodd"/>
<path d="m2.55 13.4c0.167 0 0.217 0.066 0.15 0.199-0.067 0.101-0.2 0.15-0.4 0.15-0.333 1e-3 -0.25-0.115 0.25-0.349z" clip-rule="evenodd" fill="#FFA621" fill-rule="evenodd"/>
<path d="m9.2 14.4c0.133 0.033 0.216 0.1 0.25 0.199 0 0.101-0.117 0.15-0.35 0.15-0.2 0-0.267-0.066-0.2-0.2 0.1-0.132 0.2-0.183 0.3-0.149z" clip-rule="evenodd" fill="#FFA621" fill-rule="evenodd"/>
<path d="m11.05 14.55c0.2 0.033 0.35 0.15 0.45 0.351 0.067 0.166 0.017 0.316-0.15 0.449-0.133 0.101-0.267 0.101-0.4 0-0.167-0.166-0.333-0.316-0.5-0.449-0.233-0.234-0.033-0.351 0.6-0.351z" clip-rule="evenodd" fill="#FFA621" fill-rule="evenodd"/>
<path d="m29.2 16.55c0.166 0 0.267 0.117 0.3 0.351 0.033 0.199 0.017 0.35-0.05 0.449-0.167 0.233-0.55 0.15-1.15-0.25-0.267-0.166-0.267-0.3 0-0.399 0.2-0.101 0.5-0.151 0.9-0.151z" clip-rule="evenodd" fill="#FFA621" fill-rule="evenodd"/>
<path d="m35.7 15.2c0.2-0.066 0.399 0.033 0.6 0.3 0.233 0.267 0.334 0.517 0.3 0.75 0 0.2-0.183 0.333-0.55 0.4-0.333 0.033-0.633 0-0.899-0.101-0.233-0.066-0.284-0.283-0.15-0.649 0.133-0.367 0.365-0.6 0.699-0.7z" clip-rule="evenodd" fill="#FFA621" fill-rule="evenodd"/>
<path d="m36.55 12.95c0.3 0 0.384 0.149 0.25 0.45-0.066 0.199-0.217 0.316-0.45 0.35-0.233 0-0.399-0.05-0.5-0.15-0.066-0.1-0.017-0.233 0.15-0.399 0.167-0.168 0.35-0.251 0.55-0.251z" clip-rule="evenodd" fill="#FFA621" fill-rule="evenodd"/>
<path d="m38.6 13.25c0.134-0.033 0.25 0 0.351 0.1 0.1 0.101 0.149 0.217 0.149 0.351 0 0.3-0.25 0.416-0.75 0.35-0.2-0.034-0.25-0.151-0.15-0.351 0.067-0.233 0.2-0.384 0.4-0.45z" clip-rule="evenodd" fill="#FFA621" fill-rule="evenodd"/>
<path d="m42.65 14.1c0.199-0.033 0.333 0.034 0.399 0.2 0.066 0.101 0.05 0.2-0.05 0.3-0.066 0.067-0.217 0.101-0.45 0.101l-0.3-0.05v-0.25c0.067-0.168 0.201-0.267 0.401-0.301z" clip-rule="evenodd" fill="#FFA621" fill-rule="evenodd"/>
<path d="m43 12.35c0.134-0.033 0.217 0.017 0.25 0.15 0.033 0.1 0 0.2-0.1 0.3-0.101 0.134-0.317 0.15-0.65 0.05-0.134-0.033-0.116-0.116 0.05-0.25 0.134-0.133 0.283-0.216 0.45-0.25z" clip-rule="evenodd" fill="#FFA621" fill-rule="evenodd"/>
<path d="m40.7 11.65c0.166-0.101 0.3-0.017 0.399 0.25 0.067 0.3 0.051 0.5-0.05 0.6-0.066 0.066-0.166 0.05-0.3-0.05l-0.3-0.3c-0.199-0.1-0.116-0.266 0.251-0.5z" clip-rule="evenodd" fill="#FFA621" fill-rule="evenodd"/>
<path d="m40.45 10.8c0.166 0.3 0.166 0.434 0 0.4-0.167-0.066-0.3-0.184-0.4-0.351-0.066-0.1-0.017-0.149 0.15-0.149 0.133 0 0.217 0.033 0.25 0.1z" clip-rule="evenodd" fill="#FFA621" fill-rule="evenodd"/>
<path d="m15.75 16.9c0.267 0 0.417 0.017 0.45 0.05s0.066 0.133 0.1 0.3c0.1 0.167 0.117 0.267 0.05 0.3s-0.317 0-0.75-0.1c-0.4-0.101-0.517-0.217-0.35-0.351 0.133-0.132 0.3-0.199 0.5-0.199z" clip-rule="evenodd" fill="#FFA621" fill-rule="evenodd"/>
<path d="m14.7 17.8c0.2 0.033 0.216 0.101 0.05 0.2s-0.35 0.116-0.55 0.05c-0.2-0.033-0.217-0.1-0.05-0.2 0.167-0.067 0.35-0.083 0.55-0.05z" clip-rule="evenodd" fill="#FFA621" fill-rule="evenodd"/>
</svg>
